<svg id="Capa_1" enable-background="new 0 0 512 512" height="512" viewBox="0 0 512 512" width="512" xmlns="http://www.w3.org/2000/svg"><g><path d="m252.523 22.024c-133.872 1.857-242.007 111.999-241.521 245.883.168 46.245 13.15 89.468 35.577 126.309 139.297-13.303 279.545-13.303 418.842 0 22.574-37.081 35.579-80.63 35.579-127.216 0-136.467-111.575-246.874-248.477-244.976z" fill="#99e6fc"/><g><g><path d="m402.124 133.392v-26.98c0-19.33-15.67-35-35-35h-23.68c-4.786 0-8.856-3.401-9.812-8.09-7.368-36.133-39.322-63.322-77.632-63.322s-70.264 27.189-77.632 63.323c-.956 4.689-5.026 8.09-9.812 8.09h-23.68c-19.33 0-35 15.67-35 35v26.98h292.248z" fill="#fea613"/></g><g><path d="m123.376 109.913c0-13.807 11.193-25 25-25h33.68c4.786 0 8.856-3.401 9.812-8.09 7.368-36.134 39.322-63.323 77.632-63.323 18.453 0 35.419 6.323 48.886 16.901-14.504-18.505-37.051-30.401-62.386-30.401-38.31 0-70.264 27.189-77.632 63.323-.956 4.689-5.026 8.09-9.812 8.09h-23.68c-19.33 0-35 15.67-35 35v26.98h13.5z" fill="#fe9901"/></g><g><path d="m451.752 222.341c-12.864 0-23.329-10.465-23.329-23.329h-2.28c0 12.863-10.465 23.329-23.329 23.329s-23.329-10.465-23.329-23.329h-2.28c0 12.863-10.465 23.329-23.328 23.329-12.864 0-23.329-10.465-23.329-23.329h-2.28c0 12.863-10.465 23.329-23.329 23.329-12.863 0-23.329-10.465-23.329-23.329h-2.28c0 12.863-10.465 23.329-23.329 23.329-12.863 0-23.329-10.465-23.329-23.329h-2.28c0 12.863-10.465 23.329-23.329 23.329-12.863 0-23.329-10.465-23.329-23.329h-2.28c0 12.863-10.465 23.329-23.329 23.329-12.863 0-23.329-10.465-23.329-23.329h-2.28c0 12.863-10.465 23.329-23.329 23.329s-23.329-10.465-23.329-23.329h-2.28c0 12.863-10.465 23.329-23.329 23.329-5.108 0-9.823-1.67-13.67-4.465v36.431h231.509c2.592 0 4.701 2.109 4.701 4.701v174.093c0 2.592-2.109 4.7-4.701 4.7h-197.722c17.111 17.591 36.837 32.626 58.558 44.464h170.091v-223.258c0-2.515 2.046-4.56 4.56-4.56h117.498c2.515 0 4.56 2.046 4.56 4.56v174.572c11.188-12.059 21.188-25.237 29.787-39.363v-176.34c-3.845 2.796-8.56 4.465-13.668 4.465z" fill="#ffefd2"/></g><g><path d="m309.015 481.125h-172.131c35.264 19.659 75.877 30.875 119.116 30.875 18.206 0 35.941-2.003 53.015-5.77z" fill="#fea613"/></g><g><path d="m35.78 168.828v30.185c0 13.458 11.011 24.469 24.469 24.469 13.458 0 24.469-11.011 24.469-24.469 0 13.458 11.011 24.469 24.469 24.469 13.458 0 24.469-11.011 24.469-24.469 0 13.458 11.011 24.469 24.469 24.469 13.458 0 24.469-11.011 24.469-24.469 0 13.458 11.011 24.469 24.469 24.469 13.458 0 24.469-11.011 24.469-24.469 0 13.458 11.011 24.469 24.469 24.469 13.458 0 24.469-11.011 24.469-24.469 0 13.458 11.011 24.469 24.469 24.469 13.458 0 24.469-11.011 24.469-24.469 0 13.458 11.011 24.469 24.469 24.469 13.458 0 24.469-11.011 24.469-24.469 0 13.458 11.011 24.469 24.469 24.469s24.469-11.011 24.469-24.469c0 13.458 11.011 24.469 24.469 24.469s24.469-11.011 24.469-24.469v-30.185z" fill="#01d0fb"/><g><path d="m451.045 199.013v-30.185h-23.762v30.185c0 13.458 11.011 24.469 24.469 24.469 4.307 0 8.356-1.138 11.881-3.112-7.49-4.197-12.588-12.206-12.588-21.357z" fill="#01c0fa"/></g><g><path d="m353.169 199.013v-30.185h-23.763v30.185c0 13.458 11.011 24.469 24.469 24.469 4.307 0 8.356-1.138 11.881-3.112-7.489-4.197-12.587-12.206-12.587-21.357z" fill="#01c0fa"/></g><g><path d="m255.294 199.013v-30.185h-23.762v30.185c0 13.458 11.011 24.469 24.469 24.469 4.307 0 8.356-1.138 11.881-3.112-7.491-4.197-12.588-12.206-12.588-21.357z" fill="#01c0fa"/></g><g><path d="m157.418 199.013v-30.185h-23.762v30.185c0 13.458 11.011 24.469 24.469 24.469 4.307 0 8.356-1.138 11.881-3.112-7.49-4.197-12.588-12.206-12.588-21.357z" fill="#01c0fa"/></g><g><path d="m59.542 199.013v-30.185h-23.762v30.185c0 13.458 11.011 24.469 24.469 24.469 4.307 0 8.356-1.138 11.881-3.112-7.49-4.197-12.588-12.206-12.588-21.357z" fill="#01c0fa"/></g><g><path d="m84.717 168.828v30.185c0 13.458 11.011 24.469 24.469 24.469 13.458 0 24.469-11.011 24.469-24.469v-30.185z" fill="#fea613"/><g><path d="m108.48 199.013v-30.185h-23.763v30.185c0 13.458 11.011 24.469 24.469 24.469 4.307 0 8.356-1.138 11.881-3.112-7.489-4.197-12.587-12.206-12.587-21.357z" fill="#fe9901"/></g><path d="m182.593 168.828v30.185c0 13.458 11.011 24.469 24.469 24.469 13.458 0 24.469-11.011 24.469-24.469v-30.185z" fill="#fea613"/><g><path d="m206.356 199.013v-30.185h-23.762v30.185c0 13.458 11.011 24.469 24.469 24.469 4.307 0 8.356-1.138 11.881-3.112-7.49-4.197-12.588-12.206-12.588-21.357z" fill="#fe9901"/></g><path d="m280.469 168.828v30.185c0 13.458 11.011 24.469 24.469 24.469 13.458 0 24.469-11.011 24.469-24.469v-30.185z" fill="#fea613"/><g><path d="m304.231 199.013v-30.185h-23.762v30.185c0 13.458 11.011 24.469 24.469 24.469 4.307 0 8.356-1.138 11.881-3.112-7.49-4.197-12.588-12.206-12.588-21.357z" fill="#fe9901"/></g><path d="m378.345 168.828v30.185c0 13.458 11.011 24.469 24.469 24.469s24.469-11.011 24.469-24.469v-30.185z" fill="#fea613"/><g><path d="m402.107 199.013v-30.185h-23.762v30.185c0 13.458 11.011 24.469 24.469 24.469 4.307 0 8.356-1.138 11.881-3.112-7.49-4.197-12.588-12.206-12.588-21.357z" fill="#fe9901"/></g></g></g><g><g><g><path d="m280.684 80.308c-3.09-2.382-5.726-5.373-7.119-9.017-2.701-7.07-9.546-12.092-17.566-12.092s-14.864 5.022-17.566 12.092c-1.392 3.644-4.029 6.635-7.119 9.017-5.041 3.886-8.055 10.273-7.184 17.303 1.038 8.382 7.787 15.164 16.165 16.24 3.239.416 6.342.006 9.13-1.047 4.218-1.594 8.931-1.594 13.149 0 2.788 1.053 5.891 1.463 9.13 1.047 8.377-1.076 15.126-7.858 16.164-16.24.872-7.031-2.143-13.418-7.184-17.303z" fill="#fff"/></g><g><ellipse cx="241.632" cy="43.234" fill="#fff" rx="10.82" ry="13.126"/></g><g><ellipse cx="270.368" cy="43.234" fill="#fff" rx="10.82" ry="13.126"/></g><g><circle cx="221.332" cy="66.826" fill="#fff" r="10.82"/></g><g><circle cx="290.668" cy="66.826" fill="#fff" r="10.82"/></g></g></g><path d="m436.774 432.354v-173.346c0-3.148-2.552-5.701-5.701-5.701h-117.498c-3.148 0-5.701 2.552-5.701 5.701v247.471c17.542-3.782 34.386-9.437 50.31-16.755.211-.114.421-.224.631-.321h-28.14c-2.867 0-5.2-2.333-5.2-5.201v-36.139c0-2.868 2.333-5.201 5.2-5.201h83.295c2.868 0 5.201 2.333 5.201 5.201v1.675c6.155-5.499 12.033-11.297 17.603-17.384z" fill="#08a9f1"/><g><path d="m324.976 418.279v-142.169c0-3.148 2.552-5.701 5.701-5.701h83.295c3.148 0 5.701 2.552 5.701 5.701v142.169c0 3.148-2.552 5.701-5.701 5.701h-83.295c-3.148-.001-5.701-2.553-5.701-5.701z" fill="#fff"/></g><path d="m348.349 418.279v-142.169c0-3.148 2.552-5.701 5.701-5.701h-23.372c-3.148 0-5.701 2.552-5.701 5.701v142.169c0 3.148 2.552 5.701 5.701 5.701h23.372c-3.149-.001-5.701-2.553-5.701-5.701z" fill="#dff6fd"/><path d="m413.972 442.361h-83.295c-3.148 0-5.701 2.552-5.701 5.701v36.139c0 3.148 2.552 5.701 5.701 5.701h27.125c22.699-10.384 43.533-24.133 61.87-40.608v-1.232c.001-3.148-2.552-5.701-5.7-5.701z" fill="#c8effe"/><path d="m348.349 484.201v-36.139c0-3.148 2.552-5.701 5.701-5.701h-23.372c-3.148 0-5.701 2.552-5.701 5.701v36.139c0 3.148 2.552 5.701 5.701 5.701h23.372c-3.149 0-5.701-2.552-5.701-5.701z" fill="#99e6fc"/><g><path d="m339.228 378.206c-4.722 0-8.551-3.828-8.551-8.551v-29.643c0-4.722 3.828-8.551 8.551-8.551 4.722 0 8.551 3.828 8.551 8.551v29.643c0 4.723-3.829 8.551-8.551 8.551z" fill="#0290cf"/></g><g><path d="m278.087 253.307h-231.508v140.909c9.858 16.194 21.551 31.144 34.774 44.585h196.735c3.148 0 5.701-2.552 5.701-5.7v-174.093c-.001-3.149-2.553-5.701-5.702-5.701z" fill="#dff6fd"/><g><path d="m123.031 253.307h84.304v185.494h-84.304z" fill="#fff"/></g></g><g><path d="m494.592 132.252h-477.184c-2.71 0-4.907 2.197-4.907 4.907v27.902c0 2.71 2.197 4.907 4.907 4.907h477.183c2.71 0 4.907-2.197 4.907-4.907v-27.902c0-2.71-2.197-4.907-4.906-4.907z" fill="#08a9f1"/></g><path d="m72.443 164.267v-26.315c0-3.148 2.552-5.701 5.701-5.701h-59.942c-3.148 0-5.701 2.552-5.701 5.701v26.315c0 3.148 2.552 5.701 5.701 5.701h59.941c-3.148 0-5.7-2.552-5.7-5.701z" fill="#0290cf"/><g><g><path d="m167.072 112.3h-18.242c-4.722 0-8.551-3.828-8.551-8.551 0-4.722 3.828-8.551 8.551-8.551h18.242c4.722 0 8.551 3.828 8.551 8.551-.001 4.723-3.829 8.551-8.551 8.551z" fill="#fff"/></g><g><path d="m363.17 112.3h-18.242c-4.722 0-8.551-3.828-8.551-8.551 0-4.722 3.828-8.551 8.551-8.551h18.242c4.722 0 8.551 3.828 8.551 8.551s-3.829 8.551-8.551 8.551z" fill="#fff"/></g></g></g></g></svg>