<svg height="512" viewBox="0 0 64 64" width="512" xmlns="http://www.w3.org/2000/svg"><g id="Twotone"><g id="Color_copy_2" data-name="Color copy 2"><g><path d="m7 21v40h34v-20h12v20h4v-40zm30 36h-26v-20h26z" fill="#a8dba8"/><g fill="#a8dba8"><path d="m23 12a8.965 8.965 0 0 1 .514-2.975 7.993 7.993 0 0 0 -7.514 7.975h-8v4h24a9 9 0 0 1 -9-9z"/><path d="m48 17a7.993 7.993 0 0 0 -7.514-7.975 8.98 8.98 0 0 1 -8.486 11.975h25v-4z"/></g><path d="m7 21h5a0 0 0 0 1 0 0v6a4 4 0 0 1 -4 4 4 4 0 0 1 -4-4v-3a3 3 0 0 1 3-3z" fill="#cff09e"/><path d="m12 21h8a0 0 0 0 1 0 0v6a4 4 0 0 1 -4 4 4 4 0 0 1 -4-4v-6a0 0 0 0 1 0 0z" fill="#79bd9a"/><path d="m20 21h8a0 0 0 0 1 0 0v6a4 4 0 0 1 -4 4 4 4 0 0 1 -4-4v-6a0 0 0 0 1 0 0z" fill="#cff09e"/><path d="m28 21h8a0 0 0 0 1 0 0v6a4 4 0 0 1 -4 4 4 4 0 0 1 -4-4v-6a0 0 0 0 1 0 0z" fill="#79bd9a"/><path d="m36 21h8a0 0 0 0 1 0 0v6a4 4 0 0 1 -4 4 4 4 0 0 1 -4-4v-6a0 0 0 0 1 0 0z" fill="#cff09e"/><path d="m44 21h8a0 0 0 0 1 0 0v6a4 4 0 0 1 -4 4 4 4 0 0 1 -4-4v-6a0 0 0 0 1 0 0z" fill="#79bd9a"/><g fill="#cff09e"><path d="m52 21h5a3 3 0 0 1 3 3v3a4 4 0 0 1 -4 4 4 4 0 0 1 -4-4v-6a0 0 0 0 1 0 0z"/><path d="m43 45a2 2 0 0 1 2-2h8v-2h-12v20h2z"/><path d="m37 37v20h-26v-20zm-19 18a16 16 0 0 0 16-16h-18a3 3 0 0 0 -3 3v13z"/><path d="m49.862 41a15.99 15.99 0 0 1 -8.862 12.371v7.629h12v-20z"/></g><path d="m41 52h12v9h-12z" fill="#79bd9a"/><path d="m29 41a4 4 0 0 0 -4-4v6a3 3 0 0 1 -3 3h-7v4a2 2 0 0 0 2 2v5h4v-5h4v5h4v-9a4 4 0 0 0 4-4v-3z" fill="#a8dba8"/><path d="m29 52h8v5h-8z" fill="#79bd9a"/><path d="m36.571 4.257a8.989 8.989 0 0 1 -13.142 10.486 9 9 0 1 0 13.142-10.486z" fill="#cff09e"/><path d="m35 13c0 1.657-1.343 4-3 4s-3-2.343-3-4 1.343-2 3-2 3 .343 3 2z" fill="#79bd9a"/></g></g><g id="Stroke_Close_copy" data-name="Stroke Close copy"><g fill="#3b8686"><path d="m58 20.142v-3.142a1 1 0 0 0 -1-1h-8.056a9.007 9.007 0 0 0 -7.738-7.9 10 10 0 0 0 -18.412 0 9.007 9.007 0 0 0 -7.738 7.9h-7.056a1 1 0 0 0 -1 1v3a4 4 0 0 0 -4 4v3a5 5 0 0 0 3 4.576v29.424a1 1 0 0 0 1 1h50a1 1 0 0 0 1-1v-29.424a5 5 0 0 0 3-4.576v-3a4 4 0 0 0 -3-3.858zm-11-3.142a1 1 0 0 0 1 1h8v2h-18.026a9.883 9.883 0 0 0 3.864-9.743 7 7 0 0 1 5.162 6.743zm-2 5h6v5a3 3 0 0 1 -6 0zm-10 5a3 3 0 0 1 -6 0v-5h6zm-14-5h6v5a3 3 0 0 1 -6 0zm16 0h6v5a3 3 0 0 1 -6 0zm-5-18a8 8 0 1 1 -8 8 8.009 8.009 0 0 1 8-8zm-23 14h7a1 1 0 0 0 1-1 7 7 0 0 1 5.162-6.743 9.883 9.883 0 0 0 3.864 9.743h-17.026zm4 4h6v5a3 3 0 0 1 -6 0zm-8 5v-3a2 2 0 0 1 2-2h4v5a3 3 0 0 1 -6 0zm47 19h-2a1 1 0 0 0 0 2h2v3h-10v-9h10zm-10 7h4v7h-4zm6 7v-7h4v7zm8 0h-2v-19a1 1 0 0 0 -1-1h-12a1 1 0 0 0 -1 1v19h-32v-28a4.982 4.982 0 0 0 4-2.031 4.954 4.954 0 0 0 8 0 4.954 4.954 0 0 0 8 0 4.954 4.954 0 0 0 8 0 4.954 4.954 0 0 0 8 0 4.954 4.954 0 0 0 8 0 4.982 4.982 0 0 0 4 2.031zm3-33a3 3 0 0 1 -6 0v-5h4a2 2 0 0 1 2 2z"/><path d="m37 36h-26a1 1 0 0 0 -1 1v20a1 1 0 0 0 1 1h26a1 1 0 0 0 1-1v-20a1 1 0 0 0 -1-1zm-1 15h-6v-2.1a5.008 5.008 0 0 0 4-4.9v-3a1 1 0 0 0 -1-1h-3.1a4.95 4.95 0 0 0 -.923-2h7.023zm-24-13h12v5a2 2 0 0 1 -2 2h-6v-.11a2.892 2.892 0 0 1 2.889-2.89h.111a1 1 0 0 0 0-2h-.111a4.894 4.894 0 0 0 -4.889 4.89v5.11a3.006 3.006 0 0 0 2 2.829v3.171h-4zm12 18h-2v-3h2zm1-5h-4a1 1 0 0 0 -1 1v4h-2v-4a1 1 0 0 0 -1-1 1 1 0 0 1 -1-1v-3h6a4 4 0 0 0 4-4v-4.829a3.006 3.006 0 0 1 2 2.829 1 1 0 0 0 1 1h3v2a3 3 0 0 1 -3 3 1 1 0 0 0 -1 1v8h-2v-4a1 1 0 0 0 -1-1zm11 5h-6v-3h6z"/><path d="m42 36a1 1 0 0 0 0 2h10a1 1 0 0 0 0-2z"/><path d="m32 18c2.405 0 4-3.01 4-5s-1.346-3-4-3-4 1.01-4 3 1.6 5 4 5zm0-6c2 0 2 .531 2 1 0 1.239-1.034 3-2 3s-2-1.761-2-3c0-.469 0-1 2-1z"/><circle cx="34" cy="8" r="1"/><circle cx="30" cy="8" r="1"/><circle cx="27" cy="10" r="1"/><circle cx="37" cy="10" r="1"/><circle cx="28" cy="43" r="1"/></g></g></g></svg>