<svg height="512pt" viewBox="-52 0 511 512" width="512pt" xmlns="http://www.w3.org/2000/svg"><path d="m309.832031 179.601562h-41.765625v-73.445312c0-35.503906-28.886718-64.390625-64.394531-64.390625-35.503906 0-64.390625 28.886719-64.390625 64.390625v73.445312h-41.765625v-73.445312c0-58.535156 47.621094-106.15625 106.15625-106.15625 58.539063 0 106.160156 47.621094 106.160156 106.160156zm0 0" fill="#eee07d"/><path d="m97.515625 121.894531h41.765625v57.707031h-41.765625zm0 0" fill="#e1ba68"/><path d="m268.066406 121.894531h41.765625v57.707031h-41.765625zm0 0" fill="#e1ba68"/><path d="m405.410156 423.257812-46.75-236.5c-3.902344-19.734374-21.210937-33.957031-41.328125-33.957031h-227.320312c-20.113281 0-37.425781 14.222657-41.324219 33.957031l-46.75 236.5c-9.085938 45.949219 26.078125 88.742188 72.914062 88.742188h257.644532c46.835937 0 81.996094-42.792969 72.914062-88.742188zm0 0" fill="#7cdac2"/><path d="m32.839844 423.257812 46.753906-236.5c3.898438-19.734374 21.207031-33.957031 41.324219-33.957031h-30.90625c-20.113281 0-37.425781 14.222657-41.324219 33.957031l-46.75 236.5c-9.085938 45.949219 26.078125 88.742188 72.914062 88.742188h30.90625c-46.835937 0-82-42.792969-72.917968-88.742188zm0 0" fill="#6ec2a1"/><path d="m330.019531 332.398438c0 69.78125-56.566406 126.347656-126.347656 126.347656-69.777344 0-126.34375-56.566406-126.34375-126.347656 0-69.777344 56.566406-126.347657 126.34375-126.347657 69.78125 0 126.347656 56.570313 126.347656 126.347657zm0 0" fill="#e9e9e9"/><g fill="#e1ba68"><path d="m190.886719 271.960938c-2.226563-11.097657-10.789063-18.742188-19.121094-17.070313-8.335937 1.671875-13.289063 12.023437-11.0625 23.121094 2.222656 11.101562 10.785156 18.742187 19.121094 17.070312 8.335937-1.671875 13.285156-12.023437 11.0625-23.121093zm0 0"/><path d="m139.71875 299.007812c-4.582031-10.351562-14.597656-15.953124-22.371094-12.511718-7.773437 3.441406-10.359375 14.621094-5.777344 24.972656 4.582032 10.351562 14.597657 15.953125 22.371094 12.511719 7.773438-3.441407 10.359375-14.621094 5.777344-24.972657zm0 0"/><path d="m235.609375 254.910156c-8.335937-1.671875-16.894531 5.972656-19.121094 17.070313-2.226562 11.097656 2.726563 21.449219 11.0625 23.121093 8.335938 1.671876 16.894531-5.972656 19.121094-17.070312s-2.726563-21.449219-11.0625-23.121094zm0 0"/><path d="m289.976562 286.464844c-7.773437-3.441406-17.789062 2.160156-22.371093 12.511718-4.582031 10.347657-1.996094 21.527344 5.777343 24.96875 7.773438 3.441407 17.789063-2.160156 22.371094-12.507812 4.582032-10.351562 1.996094-21.53125-5.777344-24.972656zm0 0"/><path d="m250.824219 340.332031c-22.394531 0-21.277344-21.964843-47.152344-21.964843-25.871094 0-24.757813 21.964843-47.152344 21.964843-17.4375 0-36.984375 29.039063-21.070312 55.472657 15.917969 26.433593 41.605469 8.191406 68.222656 8.191406 26.621094 0 52.308594 18.242187 68.222656-8.191406 15.917969-26.433594-3.628906-55.472657-21.070312-55.472657zm0 0"/></g></svg>